<svg xmlns="http://www.w3.org/2000/svg" width="81px" height="117.471px" viewBox="0 0 81 117.471">
<g>
	<g>
		<path fill="#231F20" d="M1.05,91.325c0-0.489,0.075-0.957,0.225-1.402c0.15-0.444,0.375-0.832,0.675-1.162
			c0.3-0.33,0.669-0.593,1.11-0.787c0.44-0.195,0.945-0.293,1.515-0.293c0.39,0,0.75,0.045,1.08,0.135
			c0.33,0.09,0.618,0.21,0.863,0.36c0.245,0.149,0.435,0.32,0.57,0.51c0.135,0.19,0.203,0.39,0.203,0.601
			c0,0.199-0.06,0.354-0.18,0.465c-0.12,0.109-0.26,0.165-0.42,0.165c-0.17,0-0.32-0.022-0.45-0.067
			c-0.13-0.046-0.28-0.123-0.45-0.233c-0.16-0.1-0.333-0.185-0.518-0.255c-0.185-0.069-0.422-0.104-0.712-0.104
			c-0.48,0-0.893,0.16-1.238,0.479c-0.345,0.32-0.517,0.815-0.517,1.485v2.835c0,0.67,0.172,1.162,0.517,1.478
			c0.345,0.315,0.758,0.473,1.238,0.473c0.29,0,0.522-0.022,0.697-0.067S5.6,95.825,5.76,95.735c0.11-0.069,0.205-0.127,0.285-0.172
			s0.152-0.08,0.218-0.105c0.065-0.024,0.132-0.042,0.202-0.053c0.07-0.01,0.15-0.015,0.24-0.015c0.2,0,0.347,0.058,0.442,0.173
			C7.242,95.678,7.29,95.82,7.29,95.99c0,0.21-0.067,0.41-0.203,0.601c-0.135,0.189-0.325,0.357-0.57,0.502
			c-0.245,0.146-0.533,0.263-0.863,0.353c-0.33,0.091-0.69,0.136-1.08,0.136c-0.57,0-1.075-0.098-1.515-0.293
			c-0.44-0.195-0.81-0.457-1.11-0.787c-0.3-0.33-0.525-0.715-0.675-1.155s-0.225-0.91-0.225-1.41V91.325z"/>
		<path fill="#231F20" d="M12.33,97.581c-0.15,0-0.335-0.018-0.555-0.053c-0.22-0.035-0.45-0.088-0.69-0.157
			c-0.24-0.07-0.478-0.155-0.712-0.256c-0.235-0.1-0.448-0.217-0.638-0.353c-0.19-0.135-0.345-0.287-0.465-0.457
			c-0.12-0.17-0.18-0.36-0.18-0.57c0-0.47,0.26-0.705,0.78-0.705c0.17,0.011,0.32,0.058,0.45,0.143s0.25,0.178,0.36,0.277
			c0.17,0.16,0.41,0.303,0.72,0.428c0.31,0.125,0.64,0.188,0.99,0.188c0.4,0,0.715-0.087,0.945-0.263
			c0.23-0.175,0.345-0.452,0.345-0.832c0-0.32-0.107-0.582-0.322-0.787c-0.215-0.205-0.488-0.388-0.817-0.548
			c-0.33-0.16-0.683-0.315-1.058-0.465c-0.375-0.15-0.728-0.338-1.058-0.562c-0.33-0.226-0.603-0.505-0.817-0.84
			c-0.215-0.335-0.323-0.763-0.323-1.283c0-0.42,0.07-0.8,0.21-1.14s0.34-0.635,0.6-0.885s0.58-0.442,0.96-0.578
			c0.38-0.135,0.81-0.202,1.29-0.202c0.5,0,0.938,0.062,1.312,0.188s0.69,0.277,0.945,0.457c0.255,0.181,0.447,0.368,0.577,0.562
			c0.13,0.195,0.195,0.358,0.195,0.488c0,0.229-0.058,0.417-0.173,0.562c-0.115,0.145-0.307,0.217-0.577,0.217
			c-0.16,0-0.303-0.034-0.428-0.104s-0.243-0.15-0.353-0.24c-0.12-0.1-0.305-0.215-0.555-0.345c-0.25-0.13-0.585-0.195-1.005-0.195
			c-0.36,0-0.655,0.098-0.885,0.293c-0.23,0.194-0.345,0.478-0.345,0.848c0,0.319,0.107,0.574,0.323,0.765
			c0.215,0.19,0.485,0.36,0.81,0.51c0.325,0.15,0.677,0.3,1.057,0.45c0.38,0.15,0.732,0.338,1.058,0.562
			c0.325,0.225,0.595,0.508,0.81,0.848c0.215,0.34,0.323,0.779,0.323,1.319c0,0.841-0.275,1.503-0.825,1.988
			C14.06,97.337,13.3,97.581,12.33,97.581z"/>
		<path fill="#231F20" d="M20.925,97.581c-0.15,0-0.335-0.018-0.555-0.053c-0.22-0.035-0.45-0.088-0.69-0.157
			c-0.24-0.07-0.478-0.155-0.712-0.256c-0.235-0.1-0.448-0.217-0.638-0.353c-0.19-0.135-0.345-0.287-0.465-0.457
			c-0.12-0.17-0.18-0.36-0.18-0.57c0-0.47,0.26-0.705,0.78-0.705c0.17,0.011,0.32,0.058,0.45,0.143s0.25,0.178,0.36,0.277
			c0.17,0.16,0.41,0.303,0.72,0.428c0.31,0.125,0.64,0.188,0.99,0.188c0.4,0,0.715-0.087,0.945-0.263
			c0.23-0.175,0.345-0.452,0.345-0.832c0-0.32-0.107-0.582-0.322-0.787c-0.215-0.205-0.488-0.388-0.817-0.548
			c-0.33-0.16-0.683-0.315-1.058-0.465c-0.375-0.15-0.728-0.338-1.058-0.562c-0.33-0.226-0.603-0.505-0.817-0.84
			c-0.215-0.335-0.323-0.763-0.323-1.283c0-0.42,0.07-0.8,0.21-1.14s0.34-0.635,0.6-0.885s0.58-0.442,0.96-0.578
			c0.38-0.135,0.81-0.202,1.29-0.202c0.5,0,0.938,0.062,1.312,0.188s0.69,0.277,0.945,0.457c0.255,0.181,0.447,0.368,0.577,0.562
			c0.13,0.195,0.195,0.358,0.195,0.488c0,0.229-0.058,0.417-0.173,0.562c-0.115,0.145-0.307,0.217-0.577,0.217
			c-0.16,0-0.303-0.034-0.428-0.104s-0.243-0.15-0.353-0.24c-0.12-0.1-0.305-0.215-0.555-0.345c-0.25-0.13-0.585-0.195-1.005-0.195
			c-0.36,0-0.655,0.098-0.885,0.293c-0.23,0.194-0.345,0.478-0.345,0.848c0,0.319,0.107,0.574,0.323,0.765
			c0.215,0.19,0.485,0.36,0.81,0.51c0.325,0.15,0.677,0.3,1.057,0.45c0.38,0.15,0.732,0.338,1.058,0.562
			c0.325,0.225,0.595,0.508,0.81,0.848c0.215,0.34,0.323,0.779,0.323,1.319c0,0.841-0.275,1.503-0.825,1.988
			C22.654,97.337,21.895,97.581,20.925,97.581z"/>
		<path fill="#231F20" d="M31.244,88.536c0-0.181,0.08-0.343,0.24-0.488c0.16-0.145,0.38-0.217,0.66-0.217h1.935
			c0.68,0,1.27,0.107,1.77,0.322s0.913,0.505,1.237,0.87c0.325,0.365,0.565,0.795,0.72,1.29c0.155,0.495,0.232,1.022,0.232,1.582
			v1.665c0,0.54-0.078,1.045-0.232,1.515c-0.155,0.471-0.395,0.881-0.72,1.23c-0.325,0.351-0.737,0.625-1.237,0.825
			s-1.09,0.3-1.77,0.3h-1.935c-0.28,0-0.5-0.072-0.66-0.218c-0.16-0.145-0.24-0.308-0.24-0.487V88.536z M32.999,89.42v6.42h1.08
			c0.69,0,1.23-0.18,1.62-0.54s0.585-0.885,0.585-1.575v-1.979c0-0.73-0.195-1.3-0.585-1.71s-0.93-0.615-1.62-0.615H32.999z"/>
		<path fill="#231F20" d="M46.642,88.047c0.146,0.146,0.218,0.343,0.218,0.593c0,0.23-0.072,0.418-0.218,0.562
			c-0.146,0.146-0.357,0.218-0.638,0.218h-3.359v2.354h2.25c0.289,0,0.507,0.073,0.652,0.218c0.145,0.146,0.217,0.343,0.217,0.593
			c0,0.229-0.072,0.417-0.217,0.562c-0.146,0.145-0.363,0.217-0.652,0.217h-2.25v2.476h3.359c0.28,0,0.492,0.072,0.638,0.218
			c0.146,0.145,0.218,0.342,0.218,0.592c0,0.23-0.072,0.418-0.218,0.562c-0.146,0.146-0.357,0.218-0.638,0.218h-4.215
			c-0.27,0-0.487-0.072-0.652-0.218c-0.165-0.145-0.248-0.308-0.248-0.487v-8.189c0-0.181,0.083-0.343,0.248-0.488
			c0.165-0.145,0.383-0.217,0.652-0.217h4.215C46.284,87.831,46.496,87.903,46.642,88.047z"/>
		<path fill="#231F20" d="M52.305,97.581c-0.15,0-0.336-0.018-0.556-0.053s-0.45-0.088-0.69-0.157
			c-0.24-0.07-0.477-0.155-0.712-0.256c-0.235-0.1-0.448-0.217-0.638-0.353c-0.189-0.135-0.346-0.287-0.465-0.457
			c-0.12-0.17-0.18-0.36-0.18-0.57c0-0.47,0.26-0.705,0.779-0.705c0.17,0.011,0.32,0.058,0.45,0.143s0.25,0.178,0.36,0.277
			c0.17,0.16,0.41,0.303,0.72,0.428s0.64,0.188,0.989,0.188c0.4,0,0.715-0.087,0.945-0.263c0.23-0.175,0.346-0.452,0.346-0.832
			c0-0.32-0.107-0.582-0.322-0.787c-0.216-0.205-0.488-0.388-0.818-0.548s-0.682-0.315-1.057-0.465
			c-0.375-0.15-0.729-0.338-1.059-0.562c-0.33-0.226-0.602-0.505-0.816-0.84c-0.216-0.335-0.323-0.763-0.323-1.283
			c0-0.42,0.069-0.8,0.21-1.14s0.34-0.635,0.6-0.885c0.261-0.25,0.58-0.442,0.961-0.578c0.379-0.135,0.81-0.202,1.289-0.202
			c0.5,0,0.938,0.062,1.312,0.188s0.69,0.277,0.945,0.457c0.256,0.181,0.447,0.368,0.578,0.562c0.129,0.195,0.195,0.358,0.195,0.488
			c0,0.229-0.059,0.417-0.174,0.562c-0.114,0.145-0.307,0.217-0.576,0.217c-0.16,0-0.303-0.034-0.428-0.104s-0.243-0.15-0.354-0.24
			c-0.119-0.1-0.305-0.215-0.555-0.345s-0.584-0.195-1.005-0.195c-0.36,0-0.655,0.098-0.885,0.293
			c-0.229,0.194-0.345,0.478-0.345,0.848c0,0.319,0.107,0.574,0.322,0.765s0.484,0.36,0.811,0.51c0.324,0.15,0.677,0.3,1.057,0.45
			c0.381,0.15,0.732,0.338,1.058,0.562s0.595,0.508,0.81,0.848s0.323,0.779,0.323,1.319c0,0.841-0.275,1.503-0.825,1.988
			C54.033,97.337,53.273,97.581,52.305,97.581z"/>
		<path fill="#231F20" d="M58.033,88.385c0-0.18,0.08-0.343,0.24-0.487c0.16-0.146,0.381-0.218,0.66-0.218
			c0.25,0,0.455,0.072,0.615,0.218c0.16,0.145,0.24,0.308,0.24,0.487v8.475c0,0.181-0.08,0.343-0.24,0.488
			c-0.16,0.145-0.365,0.217-0.615,0.217c-0.279,0-0.5-0.072-0.66-0.217c-0.16-0.146-0.24-0.308-0.24-0.488V88.385z"/>
		<path fill="#231F20" d="M66.134,93.17c0-0.23,0.072-0.418,0.218-0.562c0.145-0.146,0.337-0.218,0.577-0.218h1.845
			c0.279,0,0.492,0.06,0.638,0.18s0.218,0.315,0.218,0.585v2.926c-0.12,0.2-0.266,0.39-0.436,0.569
			c-0.17,0.181-0.38,0.341-0.63,0.48s-0.548,0.25-0.893,0.33s-0.757,0.12-1.237,0.12c-0.62,0-1.168-0.096-1.643-0.285
			c-0.475-0.19-0.875-0.45-1.199-0.78c-0.326-0.33-0.57-0.715-0.736-1.155c-0.164-0.439-0.247-0.909-0.247-1.41v-2.625
			c0-0.489,0.08-0.957,0.24-1.402c0.159-0.444,0.399-0.832,0.72-1.162s0.715-0.593,1.186-0.787c0.47-0.195,1.015-0.293,1.635-0.293
			c0.57,0,1.08,0.082,1.529,0.247c0.451,0.165,0.791,0.368,1.021,0.608c0.181,0.199,0.268,0.395,0.263,0.585
			c-0.006,0.189-0.072,0.347-0.203,0.472c-0.129,0.126-0.305,0.198-0.524,0.218c-0.22,0.021-0.445-0.045-0.675-0.195
			c-0.17-0.109-0.393-0.197-0.668-0.262c-0.275-0.065-0.527-0.098-0.758-0.098c-0.569,0-1.047,0.157-1.432,0.473
			c-0.385,0.314-0.578,0.812-0.578,1.492v2.85c0,0.33,0.053,0.618,0.158,0.863c0.104,0.245,0.252,0.447,0.441,0.607
			c0.19,0.16,0.408,0.277,0.653,0.353c0.245,0.074,0.513,0.112,0.802,0.112c0.291,0,0.523-0.022,0.698-0.067
			s0.343-0.113,0.503-0.203l0.27-0.194V93.95h-0.96c-0.24,0-0.433-0.072-0.577-0.217C66.206,93.587,66.134,93.4,66.134,93.17z"/>
		<path fill="#231F20" d="M72.403,88.385c0-0.18,0.082-0.343,0.247-0.487c0.165-0.146,0.383-0.218,0.653-0.218
			c0.22,0,0.404,0.058,0.555,0.173c0.15,0.114,0.245,0.247,0.285,0.397l4.035,5.895v-5.76c0-0.18,0.079-0.343,0.239-0.487
			c0.16-0.146,0.38-0.218,0.66-0.218c0.25,0,0.452,0.072,0.607,0.218c0.155,0.145,0.232,0.308,0.232,0.487v8.49
			c0,0.18-0.077,0.343-0.232,0.487s-0.357,0.218-0.607,0.218c-0.22,0-0.402-0.043-0.547-0.128c-0.146-0.085-0.248-0.197-0.308-0.338
			l-0.045-0.074l-4.021-5.835v5.67c0,0.18-0.077,0.343-0.232,0.487s-0.362,0.218-0.622,0.218c-0.271,0-0.488-0.073-0.653-0.218
			s-0.247-0.308-0.247-0.487V88.385z"/>
		<path fill="#231F20" d="M20.137,114.605c0.05,0.17,0.02,0.348-0.09,0.532c-0.11,0.186-0.3,0.312-0.57,0.383
			c-0.25,0.061-0.473,0.04-0.667-0.06c-0.195-0.101-0.318-0.235-0.368-0.405l-0.54-1.74h-3.27l-0.555,1.755
			c-0.06,0.171-0.188,0.306-0.383,0.405c-0.195,0.1-0.412,0.12-0.652,0.061c-0.27-0.07-0.462-0.198-0.578-0.383
			c-0.115-0.186-0.147-0.362-0.097-0.532l2.94-8.311c0.05-0.17,0.162-0.317,0.337-0.442c0.175-0.125,0.387-0.188,0.638-0.188
			c0.24,0,0.45,0.062,0.63,0.188c0.18,0.125,0.295,0.272,0.345,0.442L20.137,114.605z M15.097,111.845h2.34l-1.155-3.72
			L15.097,111.845z"/>
		<path fill="#231F20" d="M25.237,114.95c-0.05,0.171-0.163,0.318-0.337,0.443c-0.175,0.125-0.388,0.188-0.638,0.188
			s-0.463-0.062-0.638-0.188s-0.288-0.272-0.337-0.443l-1.785-8.324c-0.05-0.17-0.018-0.348,0.098-0.533
			c0.115-0.185,0.302-0.312,0.562-0.382c0.25-0.061,0.473-0.04,0.667,0.06c0.195,0.101,0.323,0.235,0.383,0.405l1.125,6.81
			l1.635-6.569c0.15-0.49,0.45-0.735,0.9-0.735c0.29,0,0.5,0.062,0.63,0.188s0.235,0.308,0.315,0.548l1.635,6.569l1.125-6.81
			c0.05-0.17,0.175-0.305,0.375-0.405c0.2-0.1,0.42-0.12,0.66-0.06c0.27,0.069,0.462,0.197,0.577,0.382
			c0.115,0.186,0.147,0.363,0.098,0.533l-1.785,8.324c-0.05,0.171-0.165,0.318-0.345,0.443s-0.39,0.188-0.63,0.188
			c-0.25,0-0.463-0.062-0.638-0.188c-0.175-0.125-0.288-0.272-0.337-0.443l-1.665-6.21L25.237,114.95z"/>
		<path fill="#231F20" d="M41.333,114.605c0.05,0.17,0.02,0.348-0.09,0.532c-0.11,0.186-0.3,0.312-0.57,0.383
			c-0.25,0.061-0.473,0.04-0.667-0.06c-0.195-0.101-0.318-0.235-0.368-0.405l-0.54-1.74h-3.27l-0.555,1.755
			c-0.06,0.171-0.188,0.306-0.383,0.405c-0.195,0.1-0.412,0.12-0.652,0.061c-0.27-0.07-0.462-0.198-0.578-0.383
			c-0.115-0.186-0.147-0.362-0.097-0.532l2.94-8.311c0.05-0.17,0.162-0.317,0.337-0.442c0.175-0.125,0.387-0.188,0.638-0.188
			c0.24,0,0.45,0.062,0.63,0.188c0.18,0.125,0.295,0.272,0.345,0.442L41.333,114.605z M36.292,111.845h2.34l-1.155-3.72
			L36.292,111.845z"/>
		<path fill="#231F20" d="M43.732,106.536c0-0.181,0.082-0.343,0.247-0.488c0.165-0.145,0.383-0.217,0.653-0.217h2.114
			c0.67,0,1.239,0.069,1.71,0.21c0.471,0.14,0.848,0.337,1.133,0.592s0.492,0.561,0.623,0.915c0.129,0.355,0.194,0.753,0.194,1.192
			v0.105c0,0.51-0.118,0.947-0.353,1.312s-0.647,0.657-1.237,0.878l1.665,3.404c0.109,0.141,0.125,0.312,0.045,0.518
			s-0.235,0.378-0.465,0.518c-0.221,0.11-0.436,0.138-0.646,0.083c-0.21-0.056-0.36-0.158-0.45-0.308l-1.68-3.601
			c-0.08,0.011-0.165,0.016-0.255,0.016s-0.185,0-0.285,0h-1.26v3.239c0,0.181-0.077,0.338-0.232,0.473s-0.362,0.203-0.622,0.203
			c-0.271,0-0.488-0.08-0.653-0.24s-0.247-0.33-0.247-0.51V106.536z M45.487,107.331v2.895h1.26c0.681,0,1.167-0.115,1.462-0.345
			c0.295-0.23,0.443-0.525,0.443-0.885v-0.285c0-0.43-0.148-0.768-0.443-1.013s-0.781-0.367-1.462-0.367H45.487z"/>
		<path fill="#231F20" d="M52.973,106.536c0-0.181,0.08-0.343,0.24-0.488c0.159-0.145,0.379-0.217,0.659-0.217h1.935
			c0.681,0,1.271,0.107,1.771,0.322s0.913,0.505,1.237,0.87c0.325,0.365,0.564,0.795,0.721,1.29
			c0.154,0.495,0.232,1.022,0.232,1.582v1.665c0,0.54-0.078,1.045-0.232,1.515c-0.156,0.471-0.396,0.881-0.721,1.23
			c-0.324,0.351-0.737,0.625-1.237,0.825s-1.09,0.3-1.771,0.3h-1.935c-0.28,0-0.5-0.072-0.659-0.218
			c-0.16-0.145-0.24-0.308-0.24-0.487V106.536z M54.727,107.42v6.42h1.08c0.69,0,1.23-0.18,1.621-0.54
			c0.39-0.36,0.584-0.885,0.584-1.575v-1.979c0-0.73-0.194-1.3-0.584-1.71c-0.391-0.41-0.931-0.615-1.621-0.615H54.727z"/>
		<path fill="#231F20" d="M65.482,115.581c-0.15,0-0.336-0.018-0.555-0.053c-0.221-0.035-0.451-0.088-0.69-0.157
			c-0.24-0.07-0.478-0.155-0.712-0.256c-0.236-0.1-0.448-0.217-0.639-0.353c-0.189-0.135-0.345-0.287-0.465-0.457
			c-0.119-0.17-0.18-0.36-0.18-0.57c0-0.47,0.26-0.705,0.779-0.705c0.17,0.011,0.32,0.058,0.451,0.143
			c0.129,0.085,0.25,0.178,0.359,0.277c0.17,0.16,0.41,0.303,0.721,0.428c0.309,0.125,0.639,0.188,0.989,0.188
			c0.399,0,0.715-0.087,0.945-0.263c0.229-0.175,0.345-0.452,0.345-0.832c0-0.32-0.107-0.582-0.322-0.787s-0.488-0.388-0.817-0.548
			c-0.33-0.16-0.683-0.315-1.058-0.465c-0.375-0.15-0.728-0.338-1.058-0.562c-0.33-0.226-0.603-0.505-0.817-0.84
			s-0.322-0.763-0.322-1.283c0-0.42,0.069-0.8,0.209-1.14c0.141-0.34,0.34-0.635,0.601-0.885s0.58-0.442,0.96-0.578
			c0.38-0.135,0.811-0.202,1.29-0.202c0.5,0,0.938,0.062,1.312,0.188s0.69,0.277,0.945,0.457c0.255,0.181,0.447,0.368,0.577,0.562
			c0.13,0.195,0.195,0.358,0.195,0.488c0,0.229-0.058,0.417-0.173,0.562c-0.114,0.145-0.308,0.217-0.577,0.217
			c-0.16,0-0.303-0.034-0.428-0.104s-0.242-0.15-0.353-0.24c-0.12-0.1-0.306-0.215-0.555-0.345c-0.251-0.13-0.585-0.195-1.005-0.195
			c-0.36,0-0.655,0.098-0.885,0.293c-0.23,0.194-0.346,0.478-0.346,0.848c0,0.319,0.107,0.574,0.322,0.765s0.485,0.36,0.811,0.51
			c0.324,0.15,0.678,0.3,1.057,0.45c0.381,0.15,0.732,0.338,1.059,0.562c0.324,0.225,0.594,0.508,0.81,0.848
			c0.215,0.34,0.323,0.779,0.323,1.319c0,0.841-0.275,1.503-0.826,1.988C67.212,115.337,66.452,115.581,65.482,115.581z"/>
	</g>
	<g>
		<polygon fill="#231F20" points="51.28,49.353 51.278,49.353 26.5,24.681 51.234,0 26.439,0 1.703,24.692 14.112,37.081 
			26.497,49.353 38.888,61.698 		"/>
		<polygon fill="#231F20" points="67.889,37.129 55.543,24.729 43.109,12.385 30.913,24.729 55.543,49.353 55.496,49.395 
			55.498,49.397 30.757,74.179 55.554,74.181 67.902,61.883 80.297,49.502 		"/>
	</g>
</g>
</svg>
